# Alias OBJ Model File
# Exported from SketchUp, (c) 2000-2012 Trimble Navigation Limited
# File units = meters

mtllib Tent_Poles_01.mtl

g Mesh1 Tent_Poles Model

usemtl Green_Roof
v 0.196596 1.14233e-015 -2.8
vt 1.27273 0.0415625
vn 0.885256 -0.465104 -4.39236e-016
v 1.35 2.19533 -2.8
vt 1.27273 1.16878
v 1.35 2.19533 -2.7
vt 1.22727 1.16878
v 1.5 2.48084 -2.7
vt 1.22727 1.31538
v 1.5 2.48084 -0.3
vt 0.136364 1.31538
v 1.35 2.19533 -0.3
vt 0.136364 1.16878
v 1.35 2.19533 -0.2
vt 0.0909091 1.16878
v 0.196596 1.00933e-017 -0.2
vt 0.0909091 0.0415625
f 1/1/1 2/2/1 3/3/1 4/4/1 5/5/1 6/6/1 7/7/1 8/8/1 

v 0.75 1.16608e-015 -2.8
vt 0.340909 -1.24263e-016
vn 2.30218e-015 -5.14091e-016 1
v 1.35 1.60402 -2.8
vt 0.613636 0.729101
vt 0.613636 0.997879
vt 0.0893617 -1.35056e-016
f 9/9/2 10/10/2 2/11/2 1/12/2 

v 0.75 3.38396e-017 -3
vt 1.36364 0.119438
vn 0.936618 -0.350351 5.72346e-016
v 1.35 1.60402 -3
vt 1.36364 0.897878
vt 1.27273 0.897878
vt 1.27273 0.119438
f 11/13/3 12/14/3 10/15/3 9/16/3 

v 1.65 1.60402 -3
vt -0.75 0.729101
vn -7.57912e-017 -6.79832e-015 -1
v 1.5 2.00503 -3
vt -0.681818 0.911376
vt -0.613636 0.729101
vt -0.340909 9.28581e-015
v 0 3.38396e-017 -3
vt -1.03352e-016 9.28581e-015
v 1.35 2.56952 -3
vt -0.613636 1.16797
v 1.65 2.56952 -3
vt -0.75 1.16797
v 3 3.38396e-017 -3
vt -1.36364 9.28581e-015
v 2.25 3.38396e-017 -3
vt -1.02273 9.28581e-015
f 13/17/4 14/18/4 12/19/4 11/20/4 15/21/4 16/22/4 17/23/4 18/24/4 19/25/4 

usemtl Wood
v 1.35 6.76792e-017 -3
vt -0.613636 -1.80865e-016
vn -4.81274e-015 1.55194e-016 -1
v 1.65 6.76792e-017 -3
vt -0.75 -1.80865e-016
f 20/26/5 12/19/5 14/18/5 13/17/5 21/27/5 

v 1.35 6.76792e-017 -2.7
vt -1.22727 3.07633e-017
vn -1 0 -0
vt -1.22727 0.997879
vt -1.27273 0.997879
vt -1.27273 0.729101
vt -1.36364 0.729101
vt -1.36364 3.07633e-017
f 22/28/6 3/29/6 2/30/6 10/31/6 12/32/6 20/33/6 

v 1.65 6.76792e-017 -2.7
vt 0.75 3.07633e-017
vn 0 0 1
v 1.65 2.19533 -2.7
vt 0.75 0.997879
vt 0.681818 1.12765
vt 0.613636 3.07633e-017
f 23/34/7 24/35/7 4/36/7 3/11/7 22/37/7 

vt 1.36364 3.07633e-017
vn 1 0 -0
vt 1.36364 0.729101
v 1.65 1.60402 -2.8
vt 1.27273 0.729101
v 1.65 2.19533 -2.8
vt 1.27273 0.997879
vt 1.22727 0.997879
vt 1.22727 3.07633e-017
f 21/38/8 13/39/8 25/40/8 26/41/8 24/42/8 23/43/8 

usemtl Green_Roof
v 2.25 1.16608e-015 -2.8
vt -1.27273 -0.358314
vn -0.936618 -0.350351 1.76409e-015
vt -1.27273 0.420126
vt -1.36364 0.420126
vt -1.36364 -0.358314
f 27/44/9 25/45/9 13/46/9 19/47/9 

v 2.8034 1.13224e-015 -2.8
vt 1.27427 1.54747e-015
vn -8.14671e-015 8.11498e-016 1
vt 0.75 0.729101
vt 1.02273 1.56285e-015
f 28/48/10 26/35/10 25/49/10 27/50/10 

vt -0.136364 0.681145
vn -0.885256 -0.465104 -5.48569e-016
vt -1.22727 0.681145
vt -1.22727 0.534551
vt -1.27273 0.534551
vt -1.27273 -0.59267
v 2.8034 0 -0.2
vt -0.0909091 -0.59267
v 1.65 2.19533 -0.2
vt -0.0909091 0.534551
v 1.65 2.19533 -0.3
vt -0.136364 0.534551
f 5/51/11 4/52/11 24/53/11 26/54/11 28/55/11 29/56/11 30/57/11 31/58/11 

v 3 3.38396e-017 -0
vt -1.36364 2.23518e-032
vn -7.55251e-017 -1 -1.88829e-016
v 1.65 6.76792e-017 -0
vt -0.75 1.6505e-032
v 1.65 6.76792e-017 -0.2
vt -0.75 0.0909091
vt -1.27427 0.0909091
vt -1.27427 1.27273
vt -1.02273 1.27273
vt -1.02273 1.36364
vt -1.36364 1.36364
f 32/59/12 33/60/12 34/61/12 29/62/12 28/63/12 27/64/12 19/65/12 18/66/12 

vt 1.36364 1.53816e-017
v 1.65 2.56952 -0
vt 0.75 1.16797
f 32/67/7 35/68/7 33/34/7

vt 1.36364 -0.634233
vn 0.885256 0.465104 5.36102e-017
vt 1.36364 0.685121
v 1.65 2.56952 -2.7
vt 1.22727 0.685121
v 1.5 2.85503 -2.7
vt 1.22727 0.831716
v 1.5 2.85503 -0.3
vt 0.136364 0.831716
v 1.65 2.56952 -0.3
vt 0.136364 0.685121
vt 4.54192e-017 0.685121
vt 8.25804e-017 -0.634233
f 18/69/13 17/70/13 36/71/13 37/72/13 38/73/13 39/74/13 35/75/13 32/76/13 

usemtl Wood
v 1.65 2.85503 -2.7
vt 1.22727 1.29774
vt 1.22727 1.16797
vt 1.36364 1.16797
v 1.65 2.85503 -3
vt 1.36364 1.29774
f 40/77/8 36/78/8 17/79/8 41/80/8 

vt 0.75 1.29774
vt 0.681818 1.29774
f 40/81/7 37/82/7 36/68/7

v 1.35 2.85503 -2.7
vt 0.613636 1.22727
vn 0 1 -0
vt 0.681818 1.22727
vt 0.75 1.22727
vt 0.75 1.36364
v 1.35 2.85503 -3
vt 0.613636 1.36364
f 42/83/14 37/84/14 40/85/14 41/86/14 43/87/14 

vt 0.613636 1.29774
v 1.35 2.56952 -2.7
vt 0.613636 1.16797
f 42/88/7 44/89/7 37/82/7

vt -1.36364 1.29774
vt -1.36364 1.16797
vt -1.22727 1.16797
vt -1.22727 1.29774
f 43/90/6 16/91/6 44/92/6 42/93/6 

vt -0.75 1.29774
vn -7.88207e-029 -1.01142e-014 -1
vt -0.613636 1.29774
f 41/94/15 17/23/15 16/22/15 43/95/15 

usemtl Green_Roof
vt -1.36364 3.59533e-016
vn -0.885256 0.465104 4.82827e-016
vt -1.22727 1.31935
vt -1.36364 1.31935
f 15/96/16 44/97/16 16/98/16

v 0.895448 1.70435 -2.2522
vt -1.02373 0.87512
f 15/96/16 45/99/16 44/97/16

v 0.678948 1.29228 -2.09916
vt -0.954164 0.663535
f 15/96/16 46/100/16 45/99/16

v 0.75013 1.42776 -1.63367
vt -0.742579 0.733101
f 15/96/16 47/101/16 46/100/16

v 0.917397 1.74613 -0.802826
vt -0.364921 0.896571
f 15/96/16 48/102/16 47/101/16

v 0 3.38396e-017 -0
vt 0 1.36167e-017
f 49/103/16 48/102/16 15/96/16

v 1.35 2.56952 -0.3
vt -0.136364 1.31935
f 49/103/16 50/104/16 48/102/16

v 1.35 2.56952 -0
vt 3.34683e-016 1.31935
f 50/104/16 49/103/16 51/105/16

vt 0 1.53816e-017
v 1.35 6.76792e-017 -0
f 49/106/7 52/37/7 51/89/7

vt -0.0893617 0.0909091
vn 7.17726e-017 -1 -1.88429e-016
v 1.35 6.76792e-017 -0.2
vt -0.613636 0.0909091
vt -0.613636 -2.50215e-033
vt -1.10398e-033 2.89835e-033
vt -1.10398e-033 1.36364
vt -0.340909 1.36364
vt -0.340909 1.27273
vt -0.0893617 1.27273
f 8/107/17 53/108/17 52/109/17 49/110/17 15/111/17 11/112/17 9/113/17 1/114/17 

vt -0.0893617 4.58787e-018
vn 0 0 -1
vt -0.613636 0.997879
vt -0.613636 3.07633e-017
f 8/115/18 7/116/18 53/117/18

usemtl Wood
v 1.35 6.76792e-017 -0.3
vt -0.136364 3.07633e-017
vt -0.0909091 3.07633e-017
vt -0.0909091 0.997879
vt -0.136364 0.997879
f 54/118/6 53/119/6 7/120/6 6/121/6 

v 1.65 6.76792e-017 -0.3
vt -0.75 0.136364
vn 0 -1 -0
vt -0.75 0
vt -0.613636 0
vt -0.613636 0.136364
f 55/122/19 34/61/19 33/123/19 52/124/19 53/108/19 54/125/19 

vt 0.136364 3.07633e-017
vt 0.136364 0.997879
vt 0.0909091 0.997879
vt 0.0909091 3.07633e-017
f 55/126/8 31/127/8 30/128/8 34/129/8 

vt -0.681818 1.12765
vt -0.75 0.997879
vt -0.75 3.07633e-017
f 54/117/18 6/116/18 5/130/18 31/131/18 55/132/18 

usemtl Green_Roof
vt -1.27427 0
f 29/133/18 34/132/18 30/131/18

usemtl Wood
v 1.65 2.85503 -0
v 1.35 2.85503 -0
f 56/81/7 57/88/7 51/89/7 52/37/7 33/34/7 35/68/7 

v 1.35 2.85503 -0.3
vt 0.613636 0.136364
vn 3.86042e-030 1 4.01062e-016
vt 0.613636 5.20474e-016
vt 0.75 5.20474e-016
v 1.65 2.85503 -0.3
vt 0.75 0.136364
vt 0.681818 0.136364
f 58/134/20 57/135/20 56/136/20 59/137/20 38/138/20 

vt -0.136364 1.29774
vt -0.136364 1.16797
vt 0 1.16797
vt 0 1.29774
f 58/139/6 50/140/6 51/141/6 57/142/6 

vt -0.681818 1.29774
f 50/22/18 58/95/18 38/143/18

usemtl Green_Roof
vt -1.22727 1.46595
vt -0.136364 1.46595
f 37/144/16 50/104/16 38/145/16

v 1.17382 2.23419 -0.704621
vt -0.320282 1.14717
f 50/104/16 37/144/16 60/146/16

v 1.22276 2.32734 -1.29532
vt -0.588783 1.195
f 60/146/16 37/144/16 61/147/16

v 0.966335 1.83928 -1.39353
vt -0.633422 0.944398
f 61/147/16 37/144/16 62/148/16

v 0.966629 1.83984 -1.78672
vt -0.812145 0.944686
f 62/148/16 37/144/16 63/149/16

f 63/149/16 37/144/16 45/99/16

f 44/97/16 45/99/16 37/144/16

usemtl Leafs
vn -0.885256 0.465104 -3.46945e-018
f 45/99/21 46/100/21 47/101/21 63/149/21 

usemtl Green_Roof
f 62/148/16 63/149/16 47/101/16

f 47/101/16 48/102/16 62/148/16

usemtl Leafs
vn -0.885256 0.465104 1.51788e-016
f 61/147/22 62/148/22 48/102/22 60/146/22 

usemtl Green_Roof
f 48/102/16 50/104/16 60/146/16

usemtl Wood
vt 0.136364 1.16797
vt 0.136364 1.29774
f 56/142/8 35/141/8 39/150/8 59/151/8 

f 38/143/18 59/94/18 39/23/18

vt -0.75 1.36364
vt -0.75 1.22727
vt -0.613636 1.22727
vt -0.613636 1.36364
f 21/152/19 23/153/19 22/154/19 20/155/19 

